<?xml version="1.0" encoding="UTF-8"?>
<!DOCTYPE svg PUBLIC "-//W3C//DTD SVG 1.1//EN" "http://www.w3.org/Graphics/SVG/1.1/DTD/svg11.dtd">
<!-- Creator: CorelDRAW X7 -->
<svg xmlns="http://www.w3.org/2000/svg" xml:space="preserve" width="210mm" height="297mm" version="1.1" style="shape-rendering:geometricPrecision; text-rendering:geometricPrecision; image-rendering:optimizeQuality; fill-rule:evenodd; clip-rule:evenodd"
viewBox="0 0 21000 29700"
 xmlns:xlink="http://www.w3.org/1999/xlink">
 <defs>
  <style type="text/css">
   <![CDATA[
    .fil0 {fill:white}
   ]]>
  </style>
 </defs>
 <g id="Слой_x0020_1">
  <metadata id="CorelCorpID_0Corel-Layer"/>
  <g id="Lager_94" data-name="Lager 94">
   <g>
    <path id="Path_70" class="fil0" d="M8195 7249c-226,748 -343,1528 -343,2310 0,3950 2905,7300 6815,7858 372,52 749,79 1125,79 4,0 8,0 11,0 779,0 1553,-115 2297,-340 -921,2982 -3497,5158 -6590,5570 -334,40 -673,61 -1010,61 -5,1 -12,1 -17,1 -4383,0 -7938,-3555 -7938,-7938 0,-3502 2298,-6592 5651,-7601l-1 0zm2305 -2982c-489,0 -979,33 -1463,98 -5236,722 -9138,5199 -9138,10485 0,5844 4740,10583 10584,10583 5,0 12,0 18,0 443,0 887,-28 1328,-81 4738,-608 8488,-4310 9155,-9039 66,-485 99,-978 99,-1469 0,-10 0,-22 0,-31 -4,-712 -582,-1286 -1294,-1286 -10,0 -19,0 -29,0 -293,0 -579,96 -813,273 -909,681 -2015,1050 -3151,1050 -1,0 -3,0 -4,0 -255,0 -509,-18 -761,-53 -2602,-375 -4534,-2605 -4534,-5234 0,-1141 369,-2253 1052,-3166 155,-227 238,-495 238,-770 0,-709 -544,-1300 -1250,-1360l-37 0z" data-name="Path 70"/>
   </g>
  </g>
 </g>
</svg>
